# xmcd
#
# Track frame offsets: 
#        151
#        13126
#        28249
#        44184
#        65428
#        81627
#        95712
#        106297
#        124874
#        138689
#        157794
#        171297
#        183574
#        198789
#        216144
#        227495
#        240198
#        253435
#        276510
#        289099
#        303052
#        317763
#        329070
#        344677
#
# Disc length: 4789 seconds
#
# Revision: 0
# Processed by: cddbd v1.5.2PL0 Copyright (c) Steve Scherf et al.
# Submitted via: ExactAudioCopy v1.3
#
DISCID=7712b318
DTITLE=Various Artist - Black 'N Blues Volume 4 D2
DYEAR=2013
DGENRE=Blues
TTITLE0=Tyrone Davis - Turn Back the Hands of Time
TTITLE1=Joe Simon - Drownin' in the Sea of Love
TTITLE2=Aretha Franklin - Angel
TTITLE3=Bobby Bland - Goin' Down Slow
TTITLE4=ZZ Hill - Someone Else is Steppin' In
TTITLE5=Betty LaVette - Let Me Down Easy
TTITLE6=James Carr - You Got My Mind Messed Up
TTITLE7=BB King - Guess Who
TTITLE8=Ko Ko Taylor - Wang Dang Doodle
TTITLE9=Jesse James - I Can Do Bad By Myself
TTITLE10=King Floyd - Groove Me
TTITLE11=James Brown - This is a Man's World
TTITLE12=Staple Singers - If You're Ready (Come Go With Me)
TTITLE13=Bobby Womack - Harry Hippie
TTITLE14=Ernie K-Doe - Mother In Law
TTITLE15=Jackie Wilson - Stop Doggin' Me Around
TTITLE16=Betty Swan - Make Me Yours
TTITLE17=Al Green - For the Good Times
TTITLE18=Marvin Gaye - Try It Baby
TTITLE19=Jesse Belvin - Good Night My Love
TTITLE20=Ray Charles - You Don't Know Me
TTITLE21=Sam Cooke - God Bless The Child
TTITLE22=Lorraine Ellison - Stay With Me Baby
TTITLE23=Bill Doggett - Honky Tonk
EXTD=
EXTT0=
EXTT1=
EXTT2=
EXTT3=
EXTT4=
EXTT5=
EXTT6=
EXTT7=
EXTT8=
EXTT9=
EXTT10=
EXTT11=
EXTT12=
EXTT13=
EXTT14=
EXTT15=
EXTT16=
EXTT17=
EXTT18=
EXTT19=
EXTT20=
EXTT21=
EXTT22=
EXTT23=
PLAYORDER=
